Patient4_TMGait_0pt5_02_left_31_GRF.mot
version=1
nRows=52
nColumns=19
inDegrees=no
endheader
time	F1x	F1y	F1z	M1x	M1y	M1z	F2x	F2y	F2z	M2x	M2y	M2z	EC1x	EC1y	EC1z	EC2x	EC2y	EC2z
39.77	-2.8407	-13.8044	9.645	1.1776	-5.4439	-17.584	-18.1601	735.5405	-58.7389	282.1451	65.1826	702.4891	-0.0592	0.0182	-0.0073	-0.0462	0.0165	0.9585
39.7836	-2.0546	-8.4497	6.4014	0.50018	-3.656	-10.9679	-17.3773	733.6424	-56.4192	280.9694	61.7048	696.9476	-0.0592	0.0182	-0.0073	-0.0462	0.0165	0.9585
39.7971	-1.3491	-3.8997	3.683	-0.080951	-2.1552	-5.3553	-15.9693	733.0761	-54.055	280.3371	57.9918	692.0633	-0.0592	0.0182	-0.0073	-0.0462	0.0165	0.9585
39.8107	-0.787	-0.41208	1.6336	-0.53425	-1.0225	-1.0566	-14.0747	734.5389	-51.9015	280.5364	54.3848	688.6921	-0.0592	0.0182	-0.0073	-0.0462	0.0165	0.9585
39.8243	-0.39003	2.0305	0.23715	-0.86375	-0.25265	1.966	-11.8967	738.3794	-50.1651	281.6912	51.1674	687.3342	-0.0592	0.0182	-0.0073	-0.0462	0.0165	0.9585
39.8379	-0.14844	3.5642	-0.60705	-1.0818	0.20968	3.8891	-9.6161	744.4975	-48.9721	283.7393	48.5174	688.0257	-0.0592	0.0182	-0.0073	-0.0462	0.0165	0.9585
39.8514	-0.045365	4.3821	-1.0358	-1.2043	0.43427	4.9479	-7.3682	752.3817	-48.3901	286.4554	46.5305	690.3819	-0.0592	0.0182	-0.0073	-0.0462	0.0165	0.9585
39.865	-0.046818	4.6628	-1.1818	-1.2431	0.49149	5.3543	-5.2225	761.2082	-48.4035	289.4995	45.1993	693.6885	-0.0592	0.0182	-0.0073	-0.0462	0.0165	0.9585
39.8786	-0.12094	4.5366	-1.1549	-1.1989	0.44018	5.2646	-3.2127	769.9908	-48.9554	292.4761	44.4608	697.0745	-0.0592	0.0182	-0.0073	-0.0462	0.0165	0.9585
39.8921	-0.24753	4.0706	-1.0386	-1.0628	0.32569	4.7761	-1.3252	777.6849	-49.9315	294.981	44.186	699.6036	-0.0592	0.0182	-0.0073	-0.0462	0.0165	0.9585
39.9057	-0.39971	3.2655	-0.891	-0.81532	0.18776	3.913	0.4749	783.3144	-51.1904	296.6464	44.2186	700.4024	-0.0592	0.0182	-0.0073	-0.0462	0.0165	0.9585
39.9193	-0.54985	2.1024	-0.75518	-0.43455	0.061493	2.6713	2.2258	786.1042	-52.555	297.1901	44.377	698.7793	-0.0592	0.0182	-0.0073	-0.0462	0.0165	0.9585
39.9329	-0.64973	0.56068	-0.65792	0.094841	-0.016847	1.0267	3.9594	785.5839	-53.8596	296.4521	44.5025	694.3176	-0.0592	0.0182	-0.0073	-0.0462	0.0165	0.9585
39.9464	-0.62643	-1.3291	-0.61121	0.76466	-0.0078946	-0.99437	5.6747	781.6414	-54.98	294.4085	44.486	686.9361	-0.0592	0.0182	-0.0073	-0.0462	0.0165	0.9585
39.96	-0.38685	-3.4374	-0.62274	1.5241	0.13333	-3.2613	7.3781	774.5327	-55.8666	291.1747	44.2825	676.8696	-0.0592	0.0182	-0.0073	-0.0462	0.0165	0.9585
39.9736	0.18941	-5.4691	-0.6946	2.2588	0.45174	-5.4654	9.0873	764.8919	-56.5265	287.01	43.8867	664.6731	-0.0592	0.0182	-0.0073	-0.0462	0.0165	0.9585
39.9871	1.2276	-6.8735	-0.83548	2.7618	1.003	-7.0246	10.8521	753.6343	-57.0186	282.2828	43.3278	651.1271	-0.0592	0.0182	-0.0073	-0.0462	0.0165	0.9585
40.0007	2.8477	-6.79	-1.0331	2.7119	1.8205	-7.0236	12.7414	741.7653	-57.4176	277.3973	42.6444	637.0729	-0.0592	0.0182	-0.0073	-0.0462	0.0165	0.9585
40.0143	5.1135	-3.9931	-1.2776	1.6576	2.9176	-4.1595	14.8135	730.1742	-57.8032	272.7098	41.8848	623.2658	-0.0592	0.0182	-0.0073	-0.0462	0.0165	0.9585
40.0279	7.9758	3.1043	-1.526	-0.9846	4.2309	3.2513	17.1112	719.3844	-58.2328	268.4325	41.0873	610.1545	-0.0592	0.0182	-0.0073	-0.0462	0.0165	0.9585
40.0414	11.1873	16.3364	-1.7155	-5.8889	5.5998	17.1654	19.5885	709.3776	-58.7244	264.5637	40.2903	597.7692	-0.0592	0.0182	-0.0073	-0.0462	0.0165	0.9585
40.055	14.1932	37.504	-1.7329	-13.7162	6.6999	39.5064	22.1177	699.4938	-59.216	260.8546	39.4951	585.6349	-0.0592	0.0182	-0.0073	-0.0462	0.0165	0.9585
40.0686	16.0443	67.8949	-1.4253	-24.9375	7.0187	71.6579	24.485	688.5182	-59.5446	256.8397	38.6571	572.85	-0.0592	0.0182	-0.0073	-0.0462	0.0165	0.9585
40.0821	15.4407	107.6354	-0.58788	-39.5952	5.8694	113.79	26.4149	674.8855	-59.4582	251.9127	37.6832	558.2614	-0.0592	0.0182	-0.0073	-0.0462	0.0165	0.9585
40.0957	11.342	155.2529	0.98845	-57.1389	2.6596	164.3583	27.6439	657.0103	-58.6751	245.4561	36.458	540.7143	-0.0592	0.0182	-0.0073	-0.0462	0.0165	0.9585
40.1093	4.1052	207.5433	3.5301	-76.3696	-2.7082	219.9132	27.9647	633.7026	-56.9493	236.9991	34.8769	519.3637	-0.0592	0.0182	-0.0073	-0.0462	0.0165	0.9585
40.1229	-4.6031	259.5309	7.3124	-95.4434	-9.8875	274.95	27.346	604.4552	-54.1593	226.3328	32.8728	493.8429	-0.0592	0.0182	-0.0073	-0.0462	0.0165	0.9585
40.1364	-13.2379	307.056	12.1859	-112.8412	-18.1037	324.7684	25.9539	569.6747	-50.3604	213.5984	30.4406	464.4396	-0.0592	0.0182	-0.0073	-0.0462	0.0165	0.9585
40.15	-20.913	349.2049	17.444	-128.2586	-26.2756	368.2132	24.1082	530.658	-45.793	199.2697	27.6484	432.0916	-0.0592	0.0182	-0.0073	-0.0462	0.0165	0.9585
40.1636	-27.1455	387.0909	22.5308	-142.1374	-33.6392	406.4174	22.1935	489.0033	-40.8588	183.9344	24.6508	397.9257	-0.0592	0.0182	-0.0073	-0.0462	0.0165	0.9585
40.1771	-31.7161	422.1729	26.903	-155.0434	-39.5653	440.9038	20.4713	446.0628	-35.9395	168.0841	21.6128	362.9001	-0.0592	0.0182	-0.0073	-0.0462	0.0165	0.9585
40.1907	-34.5398	455.4557	30.3112	-167.3565	-43.7874	472.7323	19.0221	402.6472	-31.321	152.0061	18.6954	327.5734	-0.0592	0.0182	-0.0073	-0.0462	0.0165	0.9585
40.2043	-35.6508	487.44	32.7001	-179.2498	-46.2915	502.432	17.7483	359.0615	-27.1368	135.7991	16.01	292.146	-0.0592	0.0182	-0.0073	-0.0462	0.0165	0.9585
40.2179	-35.2352	518.4156	34.3107	-190.7947	-47.4184	530.3736	16.4382	315.3107	-23.4181	119.4558	13.645	256.6132	-0.0592	0.0182	-0.0073	-0.0462	0.0165	0.9585
40.2314	-33.5718	548.7611	35.4926	-202.0849	-47.6456	557.047	14.8578	271.4067	-20.107	102.9809	11.6419	220.9798	-0.0592	0.0182	-0.0073	-0.0462	0.0165	0.9585
40.245	-31.031	579.0472	36.6154	-213.2826	-47.4854	583.143	12.7937	227.686	-17.1352	86.5038	10.0302	185.5296	-0.0592	0.0182	-0.0073	-0.0462	0.0165	0.9585
40.2586	-28.0862	609.8295	38.0023	-224.5489	-47.4275	609.3357	10.1799	184.9358	-14.4419	70.3309	8.7953	150.8868	-0.0592	0.0182	-0.0073	-0.0462	0.0165	0.9585
40.2721	-25.1736	641.3674	39.873	-235.9489	-47.8433	635.9911	7.1434	144.416	-12.0002	54.9512	7.8781	118.0624	-0.0592	0.0182	-0.0073	-0.0462	0.0165	0.9585
40.2857	-22.5929	673.466	42.2897	-247.3917	-48.9037	663.015	4.034	107.6118	-9.7799	40.9455	7.1353	88.2293	-0.0592	0.0182	-0.0073	-0.0462	0.0165	0.9585
40.2993	-20.4801	705.2954	45.1418	-258.5698	-50.553	689.6538	1.3022	75.7854	-7.7493	28.8162	6.3858	62.3754	-0.0592	0.0182	-0.0073	-0.0462	0.0165	0.9585
40.3129	-18.8363	735.4309	48.2095	-268.9758	-52.584	714.5563	-0.73012	49.6747	-5.8815	18.8619	5.5009	41.097	-0.0592	0.0182	-0.0073	-0.0462	0.0165	0.9585
40.3264	-17.5842	762.1496	51.2068	-278.0084	-54.69	736.0783	-1.9525	29.4654	-4.1837	11.1616	4.4603	24.5564	-0.0592	0.0182	-0.0073	-0.0462	0.0165	0.9585
40.34	-16.5573	783.8039	53.8901	-285.1027	-56.5703	752.642	-2.4341	14.8604	-2.7096	5.6022	3.3435	12.548	-0.0592	0.0182	-0.0073	-0.0462	0.0165	0.9585
40.3536	-15.5507	799.1121	56.0716	-289.8329	-57.9606	763.028	-2.3571	5.1754	-1.517	1.9216	2.2687	4.547	-0.0592	0.0182	-0.0073	-0.0462	0.0165	0.9585
40.3671	-14.3526	807.3995	57.6641	-291.9908	-58.6957	766.6178	-1.981	-0.5208	-0.64956	-0.23732	1.3656	-0.18224	-0.0592	0.0182	-0.0073	-0.0462	0.0165	0.9585
40.3807	-12.7889	808.7234	58.6222	-291.6287	-58.6706	763.5043	-1.505	-3.2667	-0.088461	-1.2715	0.689	-2.4719	-0.0592	0.0182	-0.0073	-0.0462	0.0165	0.9585
40.3943	-10.7817	803.8686	58.9714	-289.0535	-57.8911	754.5113	-1.0464	-4.048	0.22974	-1.5569	0.22755	-3.133	-0.0592	0.0182	-0.0073	-0.0462	0.0165	0.9585
40.4079	-8.3441	794.2469	58.7655	-284.7854	-56.4248	741.0506	-0.67435	-3.6665	0.37064	-1.3995	-0.048493	-2.8306	-0.0592	0.0182	-0.0073	-0.0462	0.0165	0.9585
40.4214	-5.5937	781.6528	58.1368	-279.4672	-54.4467	724.8954	-0.39828	-2.7165	0.39594	-1.0257	-0.18392	-2.0631	-0.0592	0.0182	-0.0073	-0.0462	0.0165	0.9585
40.435	-2.7177	767.9909	57.2297	-273.7714	-52.1661	707.9123	-0.2091	-1.592	0.35204	-0.58616	-0.21937	-1.1473	-0.0592	0.0182	-0.0073	-0.0462	0.0165	0.9585
40.4486	0.063376	755.0413	56.2144	-268.3241	-49.8236	691.8201	-0.093175	-0.53312	0.27616	-0.17106	-0.19282	-0.26677	-0.0592	0.0182	-0.0073	-0.0462	0.0165	0.9585
40.4621	2.554	744.291	55.2083	-263.6544	-47.6024	678.0097	-0.028238	0.34117	0.1947	0.17439	-0.13881	0.47433	-0.0592	0.0182	-0.0073	-0.0462	0.0165	0.9585
